<?xml version="1.0" encoding="UTF-8"?>
<svg id="Antara_Logo_Image" data-name="Antara Logo Image" xmlns="http://www.w3.org/2000/svg" viewBox="0 0 3269 912">
  <defs>
    <style>
      .cls-1 {
        fill: #88321c;
      }

      .cls-2 {
        fill: #df8127;
      }
    </style>
  </defs>
  <path class="cls-1" d="M1437.38,624.69l.23,7.41.53,55.86-1.15,14.05.16,26.93.17,11.3-.05,27.34c-.02,8.81,1.95,17.4,4.71,25.37,6.09,17.62,27.47,20.13,45.51,21.64,1.1,1.37,1.09,6.64-.69,7.02-4.54.95-9.12-.52-13.79-.56l-68.07-.6-72.47,1.44c-1.3-2.5-1.7-4.99-.86-7.41,24.44-1.79,42.53-8.09,45.81-34.11,2.25-17.84,1.42-35.23,1.36-53.37l-.2-57.99.11-70.01-.32-77.94c-.07-17.51-3.81-42.21-18.19-50.18-8.44-4.68-17.45-6.57-26.99-5.76-.52-2.6-.58-4.63-.03-6.72l88.65-18.43c5.18-1.08,9.69-2.01,15.16-1.81l.21,46.81.02,38.73c4.15-2.2,4.12-5.76,5.85-8.76,12.03-20.97,27.93-39.37,47.99-52.74,13.59-9.06,26.91-15.59,42.64-19.66,64.39-16.68,126.05,7.89,146.78,72.96,5.36,16.83,8.82,33.86,8.87,51.87l.55,201.44c.06,20.12,8.73,39.91,28.42,42.99l20.26,3.16c.12,2.66.28,4.79-.53,7.08l-45-1.62-42.72-.04-68.17,1.31c-.42-2.15-.41-4.18.1-6.97,7.47-.83,14.63-1.27,22-3.47,18.27-5.48,26.68-22.37,26.65-41.37l-.28-198.21-5.08-33.66c-.38-2.5.59-3.67-1.34-6.16-4.34-5.62-9.06-36.05-40.08-55.8-4.86-3.09-10.48-5.39-15.83-7.13-21.48-6.97-43.68-5.34-64.21,2.86l-6.3,2.94c-8.73,4.07-15.83,10.14-23.05,17.11-14.47,13.97-24.13,31.59-31.79,50.09-2.59,6.27-6.48,27.83-6.47,36.14v15.02s.54,14.49.54,14.49c.22,5.83.21,10.69.41,17.14Z"/>
  <path class="cls-1" d="M2095.95,827.01c-34.05-5.66-60.4-24.31-69.74-58.03-4.75-17.16-7.03-34.87-1.91-51.83l3.53-11.69c6.03-19.97,23.5-37.02,40.79-48.9,15.04-10.34,31.06-17.26,48.12-23.83l83.66-32.21,42.99-19.15-.09-47.35-1.35-18.08c-2.2-17.97-8.68-35.37-21.84-47.91-17.05-16.26-45.01-18.82-67.73-14.87-33.5,5.83-52.68,27.06-57.94,60.19-1.45,9.12-4.99,16.85-13.66,20.45s-19.42,3.55-25.33-4.2c-6.44-8.45-5.78-20.4-1.48-29.81,5.39-11.81,14.43-20.45,24.47-28.33,5.91-4.64,11.55-8.76,18.36-11.89l21.86-10.05c38.41-14.81,88.67-16.82,127.13-1.15,13.42,5.47,24.91,14.81,34.14,25.54,16.93,19.67,22.66,50.04,22.71,76.23l.39,185.69,1.95,28.14c1.22,17.59,14.9,38.96,33.95,37.98,12.54-.65,23-6.88,31.93-15.24,2.28,2.42,3.28,5.04,3.97,8.2l-13.37,12.39c-16.05,11.46-33.57,19.2-53.35,20.51-27.69,1.84-49.57-14.05-59.34-39.9-.21-6.38-1.06-12.61-4.27-18.54-.39-3.19.14-6.55-2.8-9.51-7.09,11.79-14.68,21.83-25.25,29.56l-20.84,15.25c-14.01,10.25-31.04,15.95-48.13,19.65l-14.88,3.22c-12.25.95-24.52,1.47-36.63-.54ZM2098.73,781.87c10.14,12.16,24.47,18.8,39.86,20.56,22.91,2.62,44.46-4.7,63.1-17.62,19.4-13.45,34.7-30.92,41.6-53.85l.04-133.57-22.94,9.8-31.38,12.85-35.31,14.42c-12.22,4.99-22.34,11.51-32.83,19.27-32.13,23.77-47.08,63.83-36.18,102.68,2.64,9.4,7.49,17.59,14.05,25.45Z"/>
  <path class="cls-1" d="M1952.97,817.66l-11.93,5.06c-12.5,5.31-26.15,6.38-39.65,6.52-9.55.1-18.69-1.62-27.93-3.8-24.5-5.8-43.83-21.74-54.39-44.53-8.93-19.27-11.73-39.47-11.73-61l.03-149.81v-70.07s.08-31.28.08-31.28l-52.94-.28c-2.21-2.96-1.96-6.56-1.25-10.13l6.18-1.8c14.35-6.07,26.62-14.49,38.47-24.72,17.69-15.27,31.1-33.9,42.89-53.96l10.59-20.64c2.36-4.6,4.38-9.04,5.51-14.65l9.18.44.26,12.87.1,92.8,39.63.36,79.98.65.05,18.97-119.57.06.24,252.06c.02,19.07,4.43,36.68,13.77,52.57,7.61,12.95,19.19,21.87,33.79,25.57,30.39,7.71,61.92-3.86,80.79-29.05,4.04-.16,8.1,6.41,5.88,8.98l-14.91,17.22c-5.55,6.41-25.08,20-33.1,21.58Z"/>
  <path class="cls-1" d="M2883.42,759.58c-17.44,26.87-49.14,50.24-79.51,60.1-28.46,9.23-58.97,12.23-87.08,1.29-20.59-8.01-36.45-24.24-44.97-44.75-6.68-16.08-9.75-33.71-6.02-50.71l2.88-13.14c3.3-15.05,11.71-28.15,22.21-39.55,11.3-12.26,25.08-21.22,40.4-28.62l86.24-34.45,32.56-12.82,34.94-17.9.15-43.02c.04-12.37-1.09-24.07-4.06-35.96-4.7-15.79-13.02-30.27-27.5-38.75-21.66-12.69-47.83-14.28-71.19-5.98-20.72,7.36-32.2,18.41-40.12,38.18l-5.45,20.47c-2.05,7.7-5.61,15.8-12.87,18.72s-14.73,3.54-21.56-.4c-10.88-6.27-10.89-21.86-4.96-33.84,1.84-3.72,3.32-7.53,6.13-10.92,30.23-36.61,85.08-53.91,131.68-50.89,21.15,1.37,41.51,4.87,59.68,15.16,21.84,12.36,37.7,30.9,43.68,55.42,4.33,17.73,5.97,35.28,5.92,53.82l-.25,96.09-.11,38.83c-.16,55.69,20.44,102.95,61.77,139.92,17.39,15.56,36.97,27.01,59.18,33.88,25.64,7.93,52.7,5.18,76.44-7.28,25-13.11,41.41-34.03,41.33-33.99,2.04-1.18,6.41,5.59,4.79,7.24l-11.45,11.67c-20.48,20.88-44.68,37.34-72.9,45.75l-11.47,3.86c-54.61,10.29-102.87-6.96-144.54-42.39-16.45-14-30.54-29.32-43-47.04-6.53-9.29-11.66-19.41-15.88-29.98l-2.8-10.36c-.56-2.09.19-5.27-2.3-7.67ZM2783.08,801.99c44.45,3.16,86-29.7,101.82-70.22,1.15-2.95.37-4.96.37-7.97l-.09-126.8c-1.75-.81-3.28-.16-4.52.66-5.28,3.47-10.68,5.79-16.91,7.17l-4.8,3.1-34.14,13.84-27.38,11.58c-28.98,12.26-56.7,33.35-67.52,63.33-7.44,20.61-8.1,42.09-1.11,62.38,8.32,24.14,28.58,41.11,54.28,42.94Z"/>
  <path class="cls-1" d="M2489.82,586.15l-.03,147.71-.12,28.21c-.05,11.14,1,22.39,5.76,32.43,7.92,16.71,27.22,19.18,44.69,20.06.46,3.13.43,5.54-.94,7.91l-72.19-1.86-81.24,1.91c-1.24-2.61-1.09-5.4-.18-8.18,10.28-.79,20.56-1.77,29.75-7.13,11.73-6.84,15.99-25.72,15.97-40.42l-.28-243.55c-.01-9.66-2.66-18.84-6.38-26.64-7.02-14.72-20.72-16.64-36.4-15.12-1.54-.58-2.1-4.6-1.07-6.55,19.41-5.37,38.69-11.28,57.47-19.24l45.17-19.14v79.43c.02,5.49-1.33,10.76.43,16.5l6.73-14.51c5.19-5.65,7.26-11.84,10.83-18.44,9.51-17.62,23.59-32.07,39.6-44.03,11.2-8.38,23.78-13.63,37.31-16.67,23.55-5.28,56.15,2.45,68.94,22.55,7.56,11.88,7.54,28.28-.64,39.11-8.33,11.01-20.66,13.84-32.63,7.89-5.62-2.8-9.06-7.78-12.59-13.17-8.77-13.4-22.27-23.41-38.77-24.13-14.59-.63-27.64,6.37-37.46,16.38l-5.59,5.69c-11.98,12.2-29.33,46.79-32.4,61.83-2.17,10.64-3.74,20.03-3.75,31.19Z"/>
  <path class="cls-2" d="M817.11,700.94c-1.01,2.48-2.19,2.81-2.71,6.03-.59,3.67-2.45,9.38-4.71,12.35-4.49,5.91-4.68,12.27-6.73,18.83-4.18,13.39-6.65,26.82-2.88,40.66,6.34,23.3,28.75,32.18,51.84,35.27.61,2.3,1.06,6.79-.32,8.21-2.27,2.06-6.14-.29-8.6-.27l-36,.21-10.16-.16-99.47.15c-6.43,0-12.51,1.89-18.98.02-1.77-.51-2.23-5.46-.86-6.75,2.92-2.76,7.6-2.19,11.09-2.93l9.09-1.94,13.84-4.2c9.01-2.73,17.35-9.31,23.27-16.4l14.22-17.03,4.24-6.85,8.28-14.74c2.72-4.83,5.74-8.62,8.01-13.97l5.08-12c2.5-5.92,5.01-11.43,7.48-17.23l17.67-41.5c.95-2.24,1.87-3.58,3.14-6.35l3.88-8.51,3.27-7.93,17.78-42.98,9.28-20.78,11.33-26.63,42.52-99.39c4.5-10.51,7.6-20.76,13.94-30.57,1.87-7.04,3.96-14.2,7.83-20.86l9.51-22.46,29.44-70.37,13.01-31.19,26.29-63.77,32.04.03,10.46,25.54,25.7,61.4,21.59,51.38,26.97,64,32.64,79.22,31.92,76.92,8.47,20.79,27.52,66.44,18.26,43.78,25.32,61.76c3.93,9.58,8.19,19.13,15.23,26.59,15.35,16.24,27.41,17.51,48.63,21.41.43,2.35.25,5.01-.23,7.36-3.43,2-6.94.55-10.63.53l-12.45-.07-135.33.06-47.87.69c-.41-2.76-.51-5.95-.02-8.36,12.77-2.82,26.48-3.71,37.5-10.3,10.02-6,17.13-17.72,15.28-28.95-2.63-16-9.83-29.61-15.65-44.32l-23.25-58.71-11.66-27.79-18.22-45.58-103.77-.32-42.29-.15-35.37.13-30.86.06c-7.72.01-15.07-1.08-22.84.61-.67,5.37-3.73,9.53-5.91,14.04-1.29,2.68-.86,6.3-4.66,8,.69,4.21-.26,7.6-3.51,9.82-.45,6.87-3.23,12.88-7.14,18.1-.27,5.52-2.81,10.09-4.81,15.02l-14.98,36.89ZM876.56,553.93c-1.78,6.64-3.18,11.83-6.37,18.72l39.3.04,122.85-.13,49.31-.28-15.81-39.07-12.3-29.8-8.26-19.65-15.56-37.47-14.28-33.54-24.72-59.37-3.45-9.99-8.94-22.73c-.51-1.29-3.2-.24-3.95.39-.79.66-1.96,2.3-1.58,3.82.65,2.59-1.64,4.06-2.05,5.78-2.35,9.82-7.17,17.86-10.97,26.92l-10.32,24.64-11.46,26.75-3.38,8.85-10.39,24.53-9.65,22.52-10.73,26.1-4.14,8.83-10.11,24.79-3.49,9-6.31,15.95-3.24,4.41Z"/>
  <circle class="cls-1" cx="2530.79" cy="259.09" r="20.37"/>
  <polygon class="cls-2" points="2136.64 216.75 2147.95 216.52 2125.73 301.63 2114.39 301.63 2095.78 233.28 2077.43 301.51 2066.1 301.65 2043.89 216.64 2055.13 216.43 2071.69 283.56 2089.63 216.57 2101.88 216.46 2119.99 283.14 2136.64 216.75"/>
  <polygon class="cls-2" points="1175.41 216.74 1186.73 216.74 1164.52 301.5 1153.22 301.65 1134.61 233.31 1116.25 301.49 1104.95 301.68 1082.68 216.66 1093.97 216.46 1110.49 283.57 1128.49 216.58 1140.68 216.54 1158.74 283.56 1175.41 216.74"/>
  <polygon class="cls-2" points="1572.78 301.59 1559.56 301.88 1516.95 232.53 1516.73 301.72 1506.23 301.7 1506.23 216.48 1519.94 216.43 1562 285.7 1562.28 216.47 1572.77 216.48 1572.78 301.59"/>
  <polygon class="cls-2" points="2420.55 301.44 2407.32 301.61 2364.95 233.02 2364.44 301.56 2354 301.7 2353.99 216.56 2367.87 216.46 2409.81 285.6 2410.04 216.44 2420.53 216.54 2420.55 301.44"/>
  <path class="cls-2" d="M1842.79,265.77c4.01,7.26,3.93,15.6.86,22.89-4.49,7.94-12.54,12.87-21.8,12.91l-29.38.12v-85.23s31.63.36,31.63.36c11.01.13,18.8,9.38,18.4,20.22.81,8.79-4.25,15.88-12.64,19.52,5.34.76,9.95,3.82,12.93,9.21ZM1831.02,236.5c-.77-6.05-5.36-9.76-10.96-9.74l-17.05.05v24.95s16.42-.17,16.42-.17c7.79-.08,13.31-6.73,11.59-15.09ZM1834.58,275.44c-.66-7.63-5.59-13.08-12.86-13.18l-18.71-.25v29.41s16.95-.06,16.95-.06c8.85-.03,15.43-6.49,14.62-15.92Z"/>
  <polygon class="cls-2" points="1413.55 301.38 1403 301.7 1402.99 262.76 1363.56 262.78 1363.53 301.56 1352.99 301.7 1353 216.46 1363.53 216.52 1363.53 251.67 1402.99 251.8 1403 216.46 1413.53 216.55 1413.55 301.38"/>
  <polygon class="cls-2" points="1928.91 263.77 1892.78 263.79 1892.84 290.78 1933.51 290.74 1933.7 301.77 1882.23 301.77 1882.23 216.47 1931.73 216.47 1931.73 227.53 1892.81 227.55 1892.84 252.77 1928.9 252.76 1928.91 263.77"/>
  <polygon class="cls-2" points="2313.07 263.78 2277 263.78 2277 290.77 2317.91 290.76 2317.92 301.78 2266.53 301.77 2266.45 216.48 2315.95 216.46 2315.96 227.53 2277.02 227.54 2277 252.77 2313.08 252.77 2313.07 263.78"/>
  <polygon class="cls-2" points="2225.72 263.76 2189.56 263.8 2189.67 290.78 2230.43 290.75 2230.46 301.72 2178.99 301.78 2178.99 216.49 2228.46 216.47 2228.48 227.52 2189.6 227.57 2189.68 252.77 2225.73 252.82 2225.72 263.76"/>
  <polygon class="cls-2" points="1295.78 301.56 1285.23 301.69 1285.24 227.62 1260.51 227.51 1260.54 216.47 1320.46 216.47 1320.49 227.51 1295.76 227.61 1295.78 301.56"/>
  <polygon class="cls-2" points="1996.24 301.48 1985.8 301.67 1985.72 227.5 1961.11 227.45 1961.15 216.51 2020.85 216.51 2020.88 227.45 1996.27 227.5 1996.24 301.48"/>
  <path class="cls-1" d="M1697.54,272.9c-7.03,9.19-19,10.12-27.08,2.52-8.78-8.26-9.19-22.13-1.39-31.25,3.87-4.52,8.83-6.61,14.4-6.47,5.22.13,10.11,2.48,13.81,7.16,6.26,7.92,6.66,19.65.25,28.03Z"/>
  <rect class="cls-2" x="1454.47" y="216.48" width="10.53" height="85.28"/>
  <rect class="cls-2" x="1217.76" y="216.48" width="10.47" height="85.28"/>
  <polygon class="cls-2" points="3083.55 301.44 3070.17 301.68 3027.91 233.14 3027.45 301.55 3017 301.7 3016.99 216.56 3030.68 216.53 3072.88 286.21 3073.02 216.46 3083.53 216.55 3083.55 301.44"/>
  <path class="cls-2" d="M2976.5,279.92c-6.57,15.35-20.43,24.16-35.98,24.11-15.59-.05-29.24-8.95-35.66-23.96-5.6-13.08-5.66-28.16-.2-41.27,6.1-14.63,19.14-23.75,34.02-24.4,15.77-.69,29.88,7.4,36.93,22.05,6.5,13.51,6.98,29.23.89,43.46ZM2963.99,279.41c7.49-12.6,7.15-28.1.06-40.36-5.07-8.78-14.02-13.61-23.56-13.6-9.16.01-17.78,4.78-22.96,13.24-7.56,12.35-7.47,28.31-.13,40.84,4.97,8.48,13.88,13.34,23.12,13.42s18.2-4.65,23.48-13.53Z"/>
  <path class="cls-2" d="M2677.82,256.56c7.22,1.09,12.71,6.55,14.84,13.81s1.51,15-3.14,21.37c-3.66,5.03-10.57,9.56-18.01,9.64l-31.05.33v-85.25s31.59.37,31.59.37c10.93.13,18.01,9,18.53,19.41.46,9.06-3.82,16.51-12.77,20.31ZM2666.18,251.68c7.57-.04,12.57-4.72,13.06-11.22.45-5.93-2.52-13.31-9.24-13.41l-18.98-.28v24.99s15.16-.08,15.16-.08ZM2682.52,275.44c-.65-7.62-5.56-13.07-12.81-13.17l-18.71-.26v29.41s16.96-.06,16.96-.06c8.83-.03,15.37-6.51,14.57-15.91Z"/>
  <path class="cls-2" d="M3188.99,267.53c-3.29,19.86-19.27,34.08-38.97,34.15l-27.23.09-.04-85.28,31.59.2c12.95.08,23.87,7.79,29.88,19.06,4.82,9.82,6.65,20.37,4.77,31.78ZM3171.89,279.45c6.56-8.28,7.49-18.28,5.76-28.11-2.21-12.51-11.59-23.52-24.59-23.63l-19.76-.17-.09,63.18,15.41-.13c8.82-.07,17.5-3.87,23.28-11.15Z"/>
  <polygon class="cls-2" points="2776.91 263.77 2740.78 263.79 2740.84 290.78 2781.51 290.74 2781.7 301.77 2730.23 301.77 2730.23 216.47 2779.73 216.47 2779.73 227.53 2740.81 227.55 2740.84 252.77 2776.9 252.76 2776.91 263.77"/>
  <polygon class="cls-2" points="2875.25 216.64 2846.29 265.32 2846.25 301.5 2835.84 301.71 2835.68 265.4 2806.72 216.55 2820.32 216.59 2840.98 253.31 2862.22 216.48 2875.25 216.64"/>
  <path class="cls-1" d="M429.72,70.43c-.5.31,1.67.93,2.32.95l18.41.32,11.37.84c28.09,2.08,55.18,8.96,81.5,19.09,46.38,17.86,87.24,46.66,118.05,85.57,17.32,21.88,29.88,46.01,38.92,72.16,5,14.45,10.18,27.89,12.85,43.03,2.58,14.66-24.09,40.84,4.79,76.11l53.89,65.78,15.61,23.46c5.33,8.01,2.3,17.71-6.14,22.44l-31.17,17.49c-5.99,3.36-10.71,10.3-10.29,17.01.99,15.69,18.18,26.46,13.65,38.48-2.58,6.86-8.63,10.67-14.58,15.59l9.06,10.34c3.6,4.1,5.07,9.98,3.96,15.38-.92,4.47-4.78,8.62-9.21,11.69-13.82,9.54-11.6,21.23-5.46,35.61,6.52,15.25,5.49,32.14-4.04,45.9-8.85,12.79-31.61,19.51-46.99,19.01l-21.52-.7-19.36-1.29-27.27-.34c-30.66,2.53-52.44,23.61-60.97,52.88-4.07,13.95-6.43,28.09-6.87,42.74l-.84,27.99.31,21.32-10.43.11H245.41c-2.81,0-5.05-.74-7.65-.28s-5.35.17-8.59-.77c24.29-38.65,39.92-80.4,36.44-126.3-3.32-43.7-24.72-80.06-54.74-111.08l-43.74-45.21c-30.41-33.16-52.75-71.91-65.53-115.12-5.71-19.33-8.07-38.57-9.56-58.58l-.82-4,.26-15.96c1.93-19.8,3.62-39.63,9.24-59.36,14.86-52.22,36.69-92.61,72.85-132.87,54.29-60.46,128.12-99.29,209.12-107.29l11.21-.84c7.84-.59,15.59.14,22.87-.99l12.96-.28Z"/>
  <path class="cls-2" d="M525.15,507.5l-.06-65.61-38.14-.38c-17.23-.17-33.68.77-51.13.2,1.19,3.38,2.72,5.55,4.5,8.01,17.12,23.76,18.57,60.35,9.83,88.06l-4.64,9.82c-9.55,23.06-26.6,41.72-48.67,53.25-15.05,7.86-37.71,16.49-53.82,16.29l-26.86-.33c-19.95-2.81-38.8-8.98-55.94-18.83-5.66-3.25-10.25-7.11-15.37-10.66-10.84-7.53-20.64-18.93-28.53-29.82l-9.22-12.73c-7.73-10.66-13.75-21.96-18.83-34.27l-11.07-26.81c-3.03-7.34-4.64-14.93-8.37-22.41,3.68-2.54,7.58-2.81,11.63-2.81l3.31,6.8c5.3,16.22,19.79,35.86,30.78,50.14,14.31,18.59,34.73,33.5,56.22,43.02,19.18,8.5,39.63,12.51,60.33,8.67,18.7-3.47,36.27-9.65,50.05-22.95,6.35-6.12,10.26-13.7,14.8-21.18,2.18-3.58,2.76-8.07,4.04-11.97,6.24-18.96,1.99-42.02-9.98-58.11-3.44-4.62-5.86-9.61-11.46-12.63l-16.49-8.88c-10.1-3.43-19.57-4.78-29.98-4.68-2.99.03-5.13-.73-8.42-.04l-18.17,3.82c-1.96.41-3.63.78-5.44.1-1.65-.61-2.07-2.8-2.92-4.73l-11.98-27.05c-1.69-3.81-4.78-6.74-2.44-11.7,3.02,1.15,6.24.05,9.34,0l22.98-.36c15.95-.25,38.51-9.58,50.65-21.02,24.93-23.5,29.8-65.72,6.89-87.11-6.9-6.44-14.66-11.96-23.84-14.28-17.8-4.51-36.43-2.21-53.27,5.47-27.98,12.76-41.06,36.79-44.09,38.33-.64.33-2.14.2-2.76-.72-3.5-5.29-8.21-9.04-12.16-13.86-4.38-5.34-8.18-11.01-13.93-15.09-1.74-1.24-2.74-2.14-2.78-4.01s.45-3.35,2.15-4.62c3.88-2.9,6.27-7.01,9.54-10.48,7.01-7.46,14.81-13.7,22.97-19.92,16.58-12.64,35.81-19.11,56.64-20.66,10.67-.8,20.36-1.06,30.99,1.07l21.05,4.21,9.66,3.62c13.4,5.02,24.44,14.77,34.37,25.29,14.95,15.84,25.27,34.54,28.58,56.32,1.23,8.07.71,16.22-.01,24.27-1.48,16.52-7.46,30.74-16.91,44.41-6.42,9.28-15.67,15.43-24.88,21.81l11.78.8c10.92-1.22,21.64-.09,32.51-.38,8.34-.23,16.37.09,24.81.44,4.86.2,9.3-.27,14.24-.14l19.74.53c5.59.15,10.5.13,16.09-.06,3.87-.13,7.7,1.52,11.85-.54l-.28-57.95-.27-12.56c-.12-5.45,1.39-10.86.12-16.43-1.09-4.79-.37-9.62.36-14.52l-.73-6.78c-.47-4.37,1.78-15.28.23-22.38-6.09-1.79-12.16-.19-18.09-.48l-16.88-.84-20.08.04c-4.75,0-8.15.13-10.49-4.43l-10.19-19.89-7.95-11.85c-.65-.98-1.03-5.24.64-5.24l162.5-.2,15.43.67,30.12-.04,9.28,36.68c.28,1.09,1.52,2,1.05,3.17-.6,1.49-1.67,2.01-3.73,1.99l-76.87-.45-.12,20.14-.32,64.91-.27,54.14.14,22.77.26,36.16-.34,46.5-.15,33.38.03,10.22.12,20.61c.03,4.61,1.66,8.56,1.81,13.3.28,8.64,4.69,16.47,9.24,23.33s19.2,15.3,27.49,15.73c6.78.35,13.93,1.11,20.35-.9l17.67-5.54c2.2,1.7,4.32,7.48,2.2,9.37l-16.08,7.12-10.87,3.74-16.52,3.69c-8.72,1.95-17.96.96-26.73-.53-31.36-5.34-51.53-24.63-58.83-55.56-1.7-7.22-3.24-13.83-3.21-21.54l.17-62.45Z"/>
</svg>